<svg id="Ebene_1" data-name="Ebene 1" xmlns="http://www.w3.org/2000/svg" viewBox="0 0 1080 1350"><defs><style>.cls-1{fill:#fff;}.cls-2,.cls-5{fill:#ed1c24;}.cls-3,.cls-4{fill:#636466;}.cls-4{fill-rule:evenodd;}.cls-5{stroke:#ed1c24;stroke-miterlimit:3.86;stroke-width:2.54px;}</style></defs><title>Zeichenfläche 1</title><polygon class="cls-1" points="698.05 629.19 842.61 629.19 842.61 677.38 698.05 677.38 698.05 629.19 698.05 629.19"/><polygon class="cls-2" points="539.31 581 683.87 581 683.87 725.57 539.31 725.57 539.31 581 539.31 581"/><polygon class="cls-2" points="387.65 581 532.22 581 532.22 725.57 387.65 725.57 387.65 581 387.65 581"/><polygon class="cls-3" points="262.52 748.09 256.96 748.09 254.14 759.51 250.65 748.09 246.88 748.09 243.38 759.51 240.56 748.09 235 748.09 240.96 769.72 245.27 769.72 248.76 759.06 252.26 769.72 256.6 769.72 262.52 748.09 262.52 748.09"/><polygon class="cls-3" points="273.33 769.72 273.33 748.09 268.01 748.09 268.01 769.72 273.33 769.72 273.33 769.72"/><path class="cls-4" d="M298.11,769.72l-4.68-9a6.23,6.23,0,0,0,3.52-5.65c0-3.56-2.58-7-7.38-7H281v21.63h5.32v-8.05h1.79l3.83,8.05Zm-6.48-14.67a2.19,2.19,0,0,1-2.3,2.19h-3v-4.38h3a2.18,2.18,0,0,1,2.3,2.19Z"/><polygon class="cls-3" points="318.78 752.83 318.78 748.09 302.83 748.09 302.83 752.83 308.15 752.83 308.15 769.72 313.47 769.72 313.47 752.83 318.78 752.83 318.78 752.83"/><path class="cls-3" d="M339.71,763.1a6.3,6.3,0,0,0-1.61-4.74,7.26,7.26,0,0,0-4.26-1.79l-2.61-.37a2.41,2.41,0,0,1-1.49-.64,1.43,1.43,0,0,1-.42-1c0-.94.76-2,2.61-2a5.36,5.36,0,0,1,4.1,1.27l3.34-3.34c-1.85-1.85-4.19-2.58-7.29-2.58-4.92,0-7.9,2.88-7.9,6.83a6,6,0,0,0,1.49,4.35A7.3,7.3,0,0,0,330,761l2.61.37a2.45,2.45,0,0,1,1.43.57,1.83,1.83,0,0,1,.42,1.28c0,1.25-1,1.94-3.1,1.94a7.07,7.07,0,0,1-4.83-1.51l-3.4,3.4c2.19,2.25,4.89,2.85,8.2,2.85,4.56,0,8.36-2.4,8.36-6.8Z"/><path class="cls-3" d="M362.21,762.86H356.8a2.69,2.69,0,0,1-2.77,2.3,2.55,2.55,0,0,1-2.09-.91c-.49-.64-.82-1.39-.82-5.34s.33-4.71.82-5.35a2.55,2.55,0,0,1,2.09-.91A2.69,2.69,0,0,1,356.8,755h5.41c-.79-4.77-4.11-7.05-8.21-7.05a8,8,0,0,0-6,2.43c-2.28,2.28-2.19,5.32-2.19,8.57s-.09,6.28,2.19,8.56a8,8,0,0,0,6,2.43c4.1,0,7.42-2.27,8.21-7Z"/><polygon class="cls-3" points="384.58 769.72 384.58 748.09 379.27 748.09 379.27 756.41 373.62 756.41 373.62 748.09 368.3 748.09 368.3 769.72 373.62 769.72 373.62 761.15 379.27 761.15 379.27 769.72 384.58 769.72 384.58 769.72"/><path class="cls-4" d="M409.91,769.72,402,748.09h-4.1l-7.87,21.63h5.56l1.07-3.22h6.65l1,3.22Zm-8-7.65h-3.77l1.95-5.78,1.82,5.78Z"/><polygon class="cls-3" points="430.1 752.83 430.1 748.09 415.4 748.09 415.4 769.72 420.72 769.72 420.72 761.37 428.74 761.37 428.74 756.63 420.72 756.63 420.72 752.83 430.1 752.83 430.1 752.83"/><polygon class="cls-3" points="451.48 752.83 451.48 748.09 435.53 748.09 435.53 752.83 440.85 752.83 440.85 769.72 446.16 769.72 446.16 752.83 451.48 752.83 451.48 752.83"/><path class="cls-3" d="M472.4,763.1a6.27,6.27,0,0,0-1.61-4.74,7.23,7.23,0,0,0-4.25-1.79l-2.61-.37a2.38,2.38,0,0,1-1.49-.64,1.44,1.44,0,0,1-.43-1c0-.94.76-2,2.62-2a5.36,5.36,0,0,1,4.1,1.27l3.34-3.34c-1.85-1.85-4.19-2.58-7.29-2.58-4.92,0-7.9,2.88-7.9,6.83a6,6,0,0,0,1.49,4.35,7.3,7.3,0,0,0,4.34,1.91l2.62.37a2.42,2.42,0,0,1,1.42.57,1.79,1.79,0,0,1,.43,1.28c0,1.25-1,1.94-3.1,1.94-1.73,0-3.71-.39-4.83-1.51l-3.4,3.4c2.18,2.25,4.89,2.85,8.2,2.85,4.56,0,8.35-2.4,8.35-6.8Z"/><polygon class="cls-3" points="497.45 769.72 489.83 756.84 497.21 748.09 490.71 748.09 484.45 755.75 484.45 748.09 479.19 748.09 479.19 769.72 484.45 769.72 484.45 762.95 486.27 760.85 491.26 769.72 497.45 769.72 497.45 769.72"/><path class="cls-4" d="M520.59,769.72l-7.87-21.63h-4.1l-7.87,21.63h5.56l1.07-3.22H514l1,3.22Zm-8-7.65h-3.76l1.94-5.78,1.82,5.78Z"/><polygon class="cls-3" points="546.25 769.72 546.25 748.09 541.03 748.09 536.17 757.63 531.31 748.09 526.08 748.09 526.08 769.72 531.4 769.72 531.4 759.36 534.47 764.71 537.87 764.71 540.94 759.36 540.94 769.72 546.25 769.72 546.25 769.72"/><polygon class="cls-3" points="574.1 769.72 574.1 748.09 568.88 748.09 564.01 757.63 559.15 748.09 553.93 748.09 553.93 769.72 559.25 769.72 559.25 759.36 562.31 764.71 565.72 764.71 568.78 759.36 568.78 769.72 574.1 769.72 574.1 769.72"/><polygon class="cls-3" points="596.48 769.72 596.48 764.98 587.09 764.98 587.09 761.18 595.11 761.18 595.11 756.45 587.09 756.45 587.09 752.83 596.48 752.83 596.48 748.09 581.78 748.09 581.78 769.72 596.48 769.72 596.48 769.72"/><path class="cls-4" d="M620.65,769.72l-4.67-9a6.23,6.23,0,0,0,3.52-5.65c0-3.56-2.58-7-7.38-7h-8.57v21.63h5.32v-8.05h1.79l3.83,8.05Zm-6.47-14.67a2.19,2.19,0,0,1-2.31,2.19h-3v-4.38h3a2.19,2.19,0,0,1,2.31,2.19Z"/><path class="cls-4" d="M649.7,746v-4.4h-4.07V746Zm-6.86,0v-4.4h-4.08V746Zm9.63,12.92c0-3.25.09-6.29-2.19-8.57a8.73,8.73,0,0,0-12.09,0c-2.28,2.28-2.19,5.32-2.19,8.57s-.09,6.28,2.19,8.56a8.73,8.73,0,0,0,12.09,0c2.28-2.28,2.19-5.31,2.19-8.56Zm-5.32,0c0,4-.31,4.64-.79,5.28a2.68,2.68,0,0,1-2.13,1,2.65,2.65,0,0,1-2.12-1c-.49-.64-.79-1.33-.79-5.28s.3-4.68.79-5.32a2.63,2.63,0,0,1,2.12-.94,2.67,2.67,0,0,1,2.13.94c.48.64.79,1.37.79,5.32Z"/><path class="cls-3" d="M674,763.1a6.27,6.27,0,0,0-1.61-4.74,7.26,7.26,0,0,0-4.25-1.79l-2.61-.37a2.38,2.38,0,0,1-1.49-.64,1.4,1.4,0,0,1-.43-1c0-.94.76-2,2.62-2a5.36,5.36,0,0,1,4.1,1.27l3.34-3.34c-1.85-1.85-4.19-2.58-7.29-2.58-4.92,0-7.9,2.88-7.9,6.83a6,6,0,0,0,1.49,4.35,7.3,7.3,0,0,0,4.34,1.91l2.61.37a2.42,2.42,0,0,1,1.43.57,1.79,1.79,0,0,1,.43,1.28c0,1.25-1,1.94-3.1,1.94-1.73,0-3.71-.39-4.83-1.51l-3.4,3.4c2.18,2.25,4.89,2.85,8.2,2.85,4.56,0,8.35-2.4,8.35-6.8Z"/><polygon class="cls-3" points="695.43 752.83 695.43 748.09 679.48 748.09 679.48 752.83 684.79 752.83 684.79 769.72 690.11 769.72 690.11 752.83 695.43 752.83 695.43 752.83"/><polygon class="cls-3" points="716.53 769.72 716.53 764.98 707.15 764.98 707.15 761.18 715.17 761.18 715.17 756.45 707.15 756.45 707.15 752.83 716.53 752.83 716.53 748.09 701.83 748.09 701.83 769.72 716.53 769.72 716.53 769.72"/><path class="cls-4" d="M740.71,769.72l-4.68-9a6.23,6.23,0,0,0,3.52-5.65c0-3.56-2.58-7-7.38-7H723.6v21.63h5.32v-8.05h1.79l3.83,8.05Zm-6.47-14.67a2.2,2.2,0,0,1-2.31,2.19h-3v-4.38h3a2.19,2.19,0,0,1,2.31,2.19Z"/><path class="cls-4" d="M763.82,769.72l-4.68-9a6.23,6.23,0,0,0,3.52-5.65c0-3.56-2.58-7-7.38-7h-8.57v21.63H752v-8.05h1.79l3.83,8.05Zm-6.48-14.67a2.19,2.19,0,0,1-2.3,2.19h-3v-4.38h3a2.18,2.18,0,0,1,2.3,2.19Z"/><polygon class="cls-3" points="784.52 769.72 784.52 764.98 775.14 764.98 775.14 761.18 783.16 761.18 783.16 756.45 775.14 756.45 775.14 752.83 784.52 752.83 784.52 748.09 769.82 748.09 769.82 769.72 784.52 769.72 784.52 769.72"/><polygon class="cls-3" points="796.91 769.72 796.91 748.09 791.59 748.09 791.59 769.72 796.91 769.72 796.91 769.72"/><path class="cls-3" d="M820.29,762.86h-5.41a2.67,2.67,0,0,1-2.77,2.3,2.55,2.55,0,0,1-2.09-.91c-.49-.64-.82-1.39-.82-5.34s.33-4.71.82-5.35a2.55,2.55,0,0,1,2.09-.91,2.67,2.67,0,0,1,2.77,2.31h5.41c-.79-4.77-4.1-7.05-8.21-7.05a8,8,0,0,0-6,2.43c-2.28,2.28-2.19,5.32-2.19,8.57s-.09,6.28,2.19,8.56a8,8,0,0,0,6,2.43c4.11,0,7.42-2.27,8.21-7Z"/><polygon class="cls-3" points="842.67 769.72 842.67 748.09 837.35 748.09 837.35 756.41 831.7 756.41 831.7 748.09 826.38 748.09 826.38 769.72 831.7 769.72 831.7 761.15 837.35 761.15 837.35 769.72 842.67 769.72 842.67 769.72"/><polygon class="cls-1" points="505.38 701.26 470.73 642.72 504.28 602.95 474.73 602.95 446.29 637.75 446.29 602.95 422.4 602.95 422.4 701.26 446.29 701.26 446.29 670.47 454.57 660.94 477.21 701.26 505.38 701.26 505.38 701.26"/><polygon class="cls-2" points="236 581 380.57 581 380.57 725.57 236 725.57 236 581 236 581"/><polygon class="cls-1" points="370.82 602.94 345.55 602.94 332.71 654.85 316.83 602.94 299.71 602.94 283.83 654.85 270.99 602.94 245.72 602.94 272.78 701.25 292.39 701.25 308.27 652.78 324.15 701.25 343.89 701.25 370.82 602.94 370.82 602.94"/><polygon class="cls-2" points="698.05 581 842.61 581 842.61 629.19 698.05 629.19 698.05 581 698.05 581"/><polygon class="cls-2" points="698.05 677.38 842.61 677.38 842.61 725.57 698.05 725.57 698.05 677.38 698.05 677.38"/><path class="cls-1" d="M611.53,599.89c29.72,0,52.13,22.4,52.13,52s-22.41,52-52.13,52-52-22.41-52-52,22.27-52,52-52Zm0,78.54c12.85,0,22.67-11.47,22.67-26.55s-9.82-26.55-22.67-26.55S589,636.81,589,651.74c0,15.22,9.68,26.69,22.55,26.69Z"/><path class="cls-5" d="M611.53,678.43c12.85,0,22.67-11.47,22.67-26.55s-9.82-26.55-22.67-26.55S589,636.81,589,651.74c0,15.22,9.68,26.69,22.55,26.69Z"/></svg>