<svg id="Ebene_1" data-name="Ebene 1" xmlns="http://www.w3.org/2000/svg" viewBox="0 0 192.4 92.2"><defs><style>.cls-1{fill:#f6a122;}</style></defs><title>Polarstern Logo Signatur Orange</title><path class="cls-1" d="M105.8,28.6H98.6a.94.94,0,0,1-1-1V3A2.05,2.05,0,0,0,95.5.9H87.1A2.05,2.05,0,0,0,85,3h0V36.4a2.05,2.05,0,0,0,2.1,2.1h18.7a2.05,2.05,0,0,0,2.1-2.1V30.7a2.11,2.11,0,0,0-2.1-2.1Z"/><path class="cls-1" d="M75.8,19.7A19,19,0,0,0,74.2,12,20,20,0,0,0,63.7,1.5a19.37,19.37,0,0,0-15.3,0A20,20,0,0,0,37.9,12a18.25,18.25,0,0,0-1.5,7.7,20.69,20.69,0,0,0,1.5,7.7A20,20,0,0,0,48.4,37.9a19.37,19.37,0,0,0,15.3,0A20,20,0,0,0,74.2,27.4,18.33,18.33,0,0,0,75.8,19.7ZM63.3,22.8A8.08,8.08,0,0,1,59.1,27,8.05,8.05,0,0,1,53,27a7.85,7.85,0,0,1-4.2-4.2,8.05,8.05,0,0,1,0-6.1A8.08,8.08,0,0,1,53,12.5a8.05,8.05,0,0,1,6.1,0,7.85,7.85,0,0,1,4.2,4.2,7.23,7.23,0,0,1,0,6.1Z"/><path class="cls-1" d="M139.9,2.2a2,2,0,0,0-2-1.3h-6.1a2.09,2.09,0,0,0-2,1.3L117.2,35.6a2.07,2.07,0,0,0,1.2,2.7,2.2,2.2,0,0,0,.8.1h7.4a2,2,0,0,0,2-1.4l.2-.7a2.17,2.17,0,0,1,2-1.4h8.5a1.84,1.84,0,0,1,1.9,1.4l.2.7a2.17,2.17,0,0,0,2,1.4h7.4a2,2,0,0,0,2.1-2,2.2,2.2,0,0,0-.1-.8ZM132.7,26l2-5.2a.19.19,0,0,1,.3-.1.1.1,0,0,1,.1.1l2,5.2a.6.6,0,0,1-.4.8h-3.5a.65.65,0,0,1-.6-.6C132.6,26.1,132.7,26.1,132.7,26Z"/><path class="cls-1" d="M24.7,4.2a15.3,15.3,0,0,0-5.5-2.5A30.66,30.66,0,0,0,12.5.9H2.6A2.11,2.11,0,0,0,.5,3h0V36.4a2.05,2.05,0,0,0,2.1,2.1h7.8a2.05,2.05,0,0,0,2.1-2.1V30.5a.94.94,0,0,1,1-1,22.39,22.39,0,0,0,5.7-.8,16.12,16.12,0,0,0,5.5-2.5,12.12,12.12,0,0,0,3.7-4.4,15.07,15.07,0,0,0,1.4-6.6,13.54,13.54,0,0,0-1.4-6.6A10.56,10.56,0,0,0,24.7,4.2Zm-7.2,11a3.89,3.89,0,0,1-1.3,3.2,5,5,0,0,1-3.1,1c-.1,0-.3-.1-.4-.1a.76.76,0,0,1-.2-.4V11.5c0-.2.1-.4.5-.4a5.28,5.28,0,0,1,3.2,1A3.58,3.58,0,0,1,17.5,15.2Z"/><path class="cls-1" d="M164.2.9A2.11,2.11,0,0,0,162.1,3h0V36.4a2.05,2.05,0,0,0,2.1,2.1H172a2.05,2.05,0,0,0,2.1-2.1V31a.56.56,0,0,1,.6-.5.52.52,0,0,1,.4.2l4,6.8a2.23,2.23,0,0,0,1.8,1h9.3a2.05,2.05,0,0,0,2.1-2.1,1.69,1.69,0,0,0-.3-1l-4.9-8.6a.89.89,0,0,1,.2-1.1,11.9,11.9,0,0,0,1.9-2,17.4,17.4,0,0,0,1.8-3.3,13.09,13.09,0,0,0,.8-4.8,15.14,15.14,0,0,0-1.3-6.3A13.11,13.11,0,0,0,187,4.7a15.92,15.92,0,0,0-5.3-2.8,21.77,21.77,0,0,0-6.7-1Zm15.7,14.3a3.56,3.56,0,0,1-1.5,3.2,6.77,6.77,0,0,1-3.6,1c-.2,0-.3-.1-.4-.1a.76.76,0,0,1-.2-.4V11.5c0-.2.2-.4.6-.4h0a6.53,6.53,0,0,1,3.6,1A3.39,3.39,0,0,1,179.9,15.2Z"/><path class="cls-1" d="M97,81.5H90.7c-1.5,0-2.1-.2-2.1-2.1v-.2c0-1.8.7-2.1,2.1-2.1h5.8A2.11,2.11,0,0,0,98.6,75h0V69.8a2.11,2.11,0,0,0-2.1-2.1H90.7c-1.7,0-2.1-.3-2.1-2.1s.4-2.1,2.1-2.1h6a2.11,2.11,0,0,0,2.1-2.1h0V55.7a2.11,2.11,0,0,0-2.1-2.1h-18a2.05,2.05,0,0,0-2.1,2.1V89.1a2.05,2.05,0,0,0,2.1,2.1H97a2.05,2.05,0,0,0,2.1-2.1V83.4A2,2,0,0,0,97,81.5Z"/><path class="cls-1" d="M61.3,53.7H39.2a2.05,2.05,0,0,0-2.1,2.1v5.7a2.05,2.05,0,0,0,2.1,2.1H43a.94.94,0,0,1,1,1V89.3a2.05,2.05,0,0,0,2.1,2.1h8.2a2.11,2.11,0,0,0,2.1-2.1h0V64.6a.94.94,0,0,1,1-1h3.8a2.11,2.11,0,0,0,2.1-2.1h0V55.8A2,2,0,0,0,61.3,53.7Z"/><path class="cls-1" d="M21.5,72.4A16,16,0,0,0,19,69.7c-.9-.8-1.7-1.4-2.5-2s-1.4-1.1-1.9-1.5-.8-.8-.8-1.1a1.14,1.14,0,0,1,.3-.8,2,2,0,0,1,.8-.4,7.72,7.72,0,0,1,1.5-.2,15.26,15.26,0,0,1,3,.3,8.33,8.33,0,0,1,1.5.4,1.08,1.08,0,0,0,1.4-.7c0-.1,0-.2.1-.2.1-.6,1.5-8,1.5-8a1,1,0,0,0-.8-1.2c-1.7-.4-4-.9-4.7-1-.9-.2-2.7-.3-3.5-.4a23.48,23.48,0,0,0-2.7-.1,16.22,16.22,0,0,0-4.9.8,13,13,0,0,0-3.8,2.1A9.66,9.66,0,0,0,.9,59.1,12.67,12.67,0,0,0,0,63.8,10.23,10.23,0,0,0,.9,68,11.83,11.83,0,0,0,3,71.2a15.39,15.39,0,0,0,2.6,2.5c.9.7,1.8,1.4,2.6,2a16.32,16.32,0,0,1,2,1.7,1.9,1.9,0,0,1,.8,1.5c0,1.3-.8,2-2.6,2a40.67,40.67,0,0,1-6.1-.7A1.75,1.75,0,0,0,.4,81.6v.2l.2,7.9A1.7,1.7,0,0,0,2,91.3c.5.1,1.1.2,1.7.3A27.12,27.12,0,0,0,7,92c1.3.1,2.7.1,4,.1A17.25,17.25,0,0,0,17,91a12.91,12.91,0,0,0,4.2-2.6,10.21,10.21,0,0,0,2.4-3.8,14.87,14.87,0,0,0,.7-4.7,10.7,10.7,0,0,0-.9-4.3A22.3,22.3,0,0,0,21.5,72.4Z"/><path class="cls-1" d="M190.1,53.7h-7.6a2.11,2.11,0,0,0-2.1,2.1h0v7c0,1.8-2,2.6-3.4.6l-6.3-8.8a2.23,2.23,0,0,0-1.7-.9h-6.7a2.11,2.11,0,0,0-2.1,2.1V89.2a2.11,2.11,0,0,0,2.1,2.1h7.6a2.05,2.05,0,0,0,2.1-2.1h0V81.6a1.54,1.54,0,0,1,1.5-1.5,1.43,1.43,0,0,1,1.2.6l7,9.7a2.23,2.23,0,0,0,1.7.9h6.8a2.11,2.11,0,0,0,2.1-2.1h0V55.8a2.14,2.14,0,0,0-2.2-2.1Z"/><path class="cls-1" d="M117,53.7a2.09,2.09,0,0,0-2,2.1V89.2a2.16,2.16,0,0,0,2,2.1h7.8a2.26,2.26,0,0,0,2.2-2V83.4a.43.43,0,0,1,.4-.4.76.76,0,0,1,.4.2l4.2,7.1a2.23,2.23,0,0,0,1.8,1h9.3a2.11,2.11,0,0,0,2.1-2.1,1.69,1.69,0,0,0-.3-1L140,79.6a.89.89,0,0,1,.2-1.1,11.9,11.9,0,0,0,1.9-2,12.89,12.89,0,0,0,1.7-3.3,13.09,13.09,0,0,0,.8-4.8,15.14,15.14,0,0,0-1.3-6.3,12.27,12.27,0,0,0-3.5-4.6,15.92,15.92,0,0,0-5.3-2.8,21.77,21.77,0,0,0-6.7-1ZM132.7,68a3.56,3.56,0,0,1-1.5,3.2,6.53,6.53,0,0,1-3.6,1c-.2,0-.3-.1-.4-.1a.76.76,0,0,1-.2-.4V64.4c0-.2.2-.4.6-.4h0a7.4,7.4,0,0,1,3.6.9A3.29,3.29,0,0,1,132.7,68Z"/></svg>