<svg xmlns="http://www.w3.org/2000/svg" width="147" height="63.001" viewBox="0 0 147 63.001">
  <g id="Gruppe_170" data-name="Gruppe 170" transform="translate(-46 -124.711)">
    <path id="Pfad_166" data-name="Pfad 166" d="M100.391,98a31.5,31.5,0,1,0,31.5,31.5A31.5,31.5,0,0,0,100.391,98ZM81.43,122.146a5.4,5.4,0,1,1,10.794,0c0,2.981-2.416,1.235-5.4,1.235S81.43,125.127,81.43,122.146ZM111.6,147.219a18.238,18.238,0,0,1-22.413,0,14.577,14.577,0,0,1-5.136-11.588.625.625,0,0,1,.879-.571,36.708,36.708,0,0,0,30.928,0,.625.625,0,0,1,.877.572A14.58,14.58,0,0,1,111.6,147.219Zm2.356-23.837c-2.981,0-5.4,1.745-5.4-1.235a5.4,5.4,0,1,1,10.794,0C119.351,125.127,116.934,123.381,113.954,123.381Z" transform="translate(-22.891 26.711)" fill="#e12f77"/>
    <path id="Pfad_167" data-name="Pfad 167" d="M100.391,98a31.5,31.5,0,1,0,31.5,31.5A31.5,31.5,0,0,0,100.391,98ZM81.43,122.146a5.4,5.4,0,1,1,10.794,0c0,2.981-2.416,1.235-5.4,1.235S81.43,125.127,81.43,122.146ZM111.6,147.219a18.238,18.238,0,0,1-22.413,0,14.577,14.577,0,0,1-5.136-11.588.625.625,0,0,1,.879-.571,36.708,36.708,0,0,0,30.928,0,.625.625,0,0,1,.877.572A14.58,14.58,0,0,1,111.6,147.219Zm2.356-23.837c-2.981,0-5.4,1.745-5.4-1.235a5.4,5.4,0,1,1,10.794,0C119.351,125.127,116.934,123.381,113.954,123.381Z" transform="translate(61.109 26.711)" fill="#e12f77"/>
  </g>
</svg>
