<?xml version="1.0" encoding="utf-8"?>
<!-- Generator: Adobe Illustrator 22.0.0, SVG Export Plug-In . SVG Version: 6.00 Build 0)  -->
<svg version="1.1" id="Ebene_1" xmlns="http://www.w3.org/2000/svg" xmlns:xlink="http://www.w3.org/1999/xlink" x="0px" y="0px"
	 viewBox="0 0 397.5 380.8" style="enable-background:new 0 0 397.5 380.8;" xml:space="preserve">
<style type="text/css">
	.st0{fill:#E22E77;}
</style>
<g transform="translate(-38.016 199.462) rotate(-39)">
	<path class="st0" d="M130.9,73.8c3.3,0,6.4,1.8,8.1,4.7c2,3.1,3,6.5,2.1,10.2c-0.3,1.4-0.9,2.7-1.8,3.9c-2.2,2.9-5.5,4.7-9,5.3
		c-0.5,0.1-1,0.1-1.4,0c-3.9-0.9-7.4-2.6-9.8-6c-1.7-2.4-2.4-5.3-1.9-8.2c0.2-1.2,0.7-2.4,1.5-3.3c2.1-2.5,4.8-4.4,7.9-5.5
		C128,74.4,129.4,74,130.9,73.8z"/>
	<path class="st0" d="M141.5,219.3c-0.1,4.4-1.9,7.5-5.4,9.6c-1.1,0.7-2.4,1.3-3.7,1.8c-1.4,0.4-2.8,0.5-4.2,0.3
		c-3.2-0.7-6.1-2.3-8.2-4.8c-2.1-2.5-3.1-5.6-2.8-8.8c0.1-1.7,0.8-3.3,2.1-4.3c1.7-1.4,3.4-2.8,5.2-4c2.6-1.6,5.8-2.1,8.8-1.4
		c1.4,0.3,2.7,0.9,3.8,1.9C139.8,212,141.4,215.6,141.5,219.3z"/>
	<path class="st0" d="M349.1,250.7c-0.1,2.9-1.8,5.9-5.2,8.2c-4,2.7-7.9,2.9-12.2,0.4c-4.4-2.6-6.6-6.3-6.6-11.3
		c0-1.6,0.5-3.2,1.7-4.3c2.2-2.5,5-4.4,8.1-5.5c5.4-1.7,9.4-0.2,12.3,4.7C348.6,245.1,349.2,247.9,349.1,250.7z"/>
	<path class="st0" d="M34.3,248c-0.1-1.6,0.5-3.2,1.6-4.4c2.3-2.6,5.2-4.6,8.5-5.7c5.2-1.6,9.2,0,11.9,4.7c1.7,2.7,2.3,6,1.8,9.1
		c-0.3,1.8-1.1,3.4-2.3,4.8c-2.2,2.4-5.1,4-8.4,4.6c-0.5,0.1-1,0.1-1.4,0c-3.9-0.9-7.3-2.6-9.6-5.9C35,253.1,34.2,250.6,34.3,248z"
		/>
	<path class="st0" d="M45.2,40.8l-0.7,0c-3.1,0-5.9-0.6-7.8-3.4c-2.2-3.4-3-6.9-1.7-10.8c0.4-1.2,0.9-2.3,1.5-3.4
		c1.1-2.6,3.5-4.4,6.3-4.8c1.5-0.3,3.1-0.5,4.7-0.4c5.4,0.3,8.7,4.4,10,8.8c0.3,1.3,0.5,2.7,0.5,4.1c0.1,4.1-2.2,7.1-6.2,8.9
		C49.7,40.4,47.5,40.8,45.2,40.8z"/>
	<path class="st0" d="M162.7,40.8l-0.6,0c-3.1,0-5.9-0.6-7.8-3.4c-2.3-3.1-2.9-7.1-1.7-10.8c0.4-1.2,0.9-2.3,1.5-3.4
		c1.1-2.6,3.5-4.4,6.3-4.8c1.5-0.3,3.1-0.5,4.7-0.5c5.4,0.3,8.7,4.3,10,8.8c0.3,1.3,0.5,2.7,0.5,4.1c0.1,4.1-2.2,7.2-6.2,8.9
		C167.2,40.4,165,40.8,162.7,40.8L162.7,40.8z"/>
	<path class="st0" d="M280.1,40.8l-0.7,0c-3.1,0-5.9-0.6-7.8-3.4c-2.3-3.1-2.9-7.1-1.7-10.8c0.4-1.2,0.9-2.3,1.5-3.4
		c1.1-2.5,3.4-4.3,6.1-4.8c1.5-0.3,3.1-0.5,4.7-0.5c5.5,0.3,8.9,4.3,10.2,8.8c0.3,1.3,0.5,2.7,0.5,4.1c0.1,4-2.2,7.1-6.3,8.8
		C284.6,40.4,282.4,40.8,280.1,40.8z"/>
	<path class="st0" d="M222.1,116.2c4-0.1,7.6,0.7,10.5,3.3c1.7,1.4,2.8,3.5,2.9,5.7c0.3,3.8-0.9,7.5-3.3,10.3
		c-2.5,2.8-5.6,3.7-9.3,3.5c-5.2-0.3-8.3-3-10.1-7.8c-1.7-4.3-0.9-9.1,2.1-12.6c1.1-1.3,2.6-2.1,4.3-2.3
		C220.2,116.4,221.2,116.3,222.1,116.2z"/>
	<path class="st0" d="M83.3,70.8c0,3.8-1.5,7.4-4.3,10c-1.5,1.4-3.4,2.2-5.4,2.2c-2.4,0.2-4.9-0.4-6.9-1.7c-1.8-1.2-3.5-2.4-5.1-3.9
		c-1.9-1.7-2.4-3.9-2.2-6.4C60,64.1,65.5,60.5,71,59.2c0.3-0.1,0.7-0.1,1-0.1C78.2,59.6,83,64.7,83.3,70.8z"/>
	<path class="st0" d="M200.9,70.9c-0.2,3.8-1.8,7.4-4.5,10c-1.5,1.4-3.4,2.1-5.5,2.1c-2.5,0.1-5-0.5-7.1-1.9
		c-1.7-1.1-3.2-2.3-4.7-3.6c-1.9-1.7-2.4-4-2.2-6.6c0.6-6.8,6.3-10.5,11.7-11.7c0.3-0.1,0.7-0.1,1-0.1c4.6,0.9,8.5,3,10.4,7.5
		C200.5,68.1,200.8,69.5,200.9,70.9z"/>
	<path class="st0" d="M318.4,70.9c-0.2,3.8-1.8,7.4-4.5,10c-1.4,1.3-3.3,2.1-5.3,2.1c-2.4,0.2-4.7-0.4-6.7-1.6
		c-1.9-1.2-3.7-2.6-5.4-4.1c-1.8-1.6-2.3-3.8-2.1-6.2c0.6-6.9,5.9-10.5,11.5-11.8c0.4-0.1,0.8-0.1,1.2-0.1c4.6,0.9,8.4,3,10.4,7.5
		C318,68.1,318.3,69.5,318.4,70.9z"/>
	<path class="st0" d="M282.9,104.4c4.7,0.5,8.6,2.6,11,7.2c0.6,1.2,0.9,2.4,1,3.7c0.2,3.4-0.9,6.8-3.1,9.4c-0.4,0.6-1,1.1-1.7,1.5
		c-4.9,2.5-11.3,3.1-16.1-1.6c-2.1-1.9-3.1-4.7-2.5-7.4c0.6-2.9,1.1-5.7,2.9-8.1C276.5,106.4,279,104.4,282.9,104.4z"/>
	<path class="st0" d="M117.6,174.6c-0.2,4.4-2.8,7.6-6.8,9.8c-1,0.5-2.1,0.9-3.3,1.2c-4,1.1-7.6-0.4-10.2-4c-2.3-3.1-3-6.7-3.2-10.5
		c-0.1-1.4,0.4-2.8,1.3-3.8c3-3.8,6.8-5.6,11.7-4.9c0.5,0.1,0.9,0.2,1.4,0.3C115.1,163.4,117.2,169.2,117.6,174.6z"/>
	<path class="st0" d="M235.1,174.6c-0.2,4.5-2.8,7.6-6.8,9.8c-1,0.5-2.1,0.9-3.3,1.2c-4,1.1-7.6-0.3-10.3-4c-2.3-3.1-3-6.7-3.3-10.5
		c-0.1-1.4,0.4-2.8,1.3-3.8c3-3.8,6.8-5.7,11.7-4.9c0.5,0.1,0.9,0.2,1.4,0.3C232.5,163.4,234.7,169.1,235.1,174.6z"/>
	<path class="st0" d="M352.5,174.6c-0.2,4.4-2.8,7.5-6.7,9.7c-1.1,0.6-2.3,1-3.5,1.3c-4.3,1.2-7.5-0.7-10.1-3.9
		c-2.4-3.1-3.1-6.8-3.3-10.6c-0.1-1.4,0.4-2.8,1.3-3.8c3-3.8,6.9-5.6,11.7-4.8c0.4,0.1,0.8,0.2,1.2,0.2
		C350.1,163.4,352.2,169.2,352.5,174.6z"/>
	<path class="st0" d="M352.5,41.1c-0.2,4.5-2.8,7.7-6.8,9.9c-1.2,0.6-2.5,1.1-3.9,1.4c-4.1,0.9-7.1-0.9-9.5-4s-3.2-6.8-3.3-10.7
		c0-1.3,0.4-2.6,1.2-3.6c2.6-4,7.4-5.9,12.1-5c0.3,0.1,0.7,0.2,1,0.2C349.9,29.9,352.1,35.7,352.5,41.1z"/>
	<path class="st0" d="M235.1,41.3c-0.3,4.5-2.9,7.7-7,9.8c-0.5,0.2-1,0.4-1.5,0.6c-5,2-8.9,0.4-11.9-3.7c-2.2-3-2.8-6.5-3.1-10.1
		c-0.1-1.4,0.4-2.8,1.2-3.9c2.6-3.8,7.2-5.7,11.7-5c0.4,0,0.8,0.2,1.2,0.3C232.6,29.9,234.7,36,235.1,41.3z"/>
	<path class="st0" d="M106.4,28.8c1.2,0.3,3.4,0.8,5.6,1.6c1,0.4,1.8,1,2.4,1.8c6.4,8.7,2.3,16.5-4.9,19.3c-1,0.4-1.9,0.7-3,0.9
		c-4,0.7-7-1.1-9.3-4.1c-2.3-3-3-6.7-3.3-10.5c-0.1-1.5,0.5-3,1.5-4.2C98,30.5,101.2,28.8,106.4,28.8z"/>
	<path class="st0" d="M295.1,249.3c-0.1,3.2-1.3,6.3-3.3,8.9c-0.5,0.7-1.2,1.2-1.9,1.5c-3.3,1.5-6.8,2.3-10.4,1.4
		c-2.7-0.7-5-2.3-6.7-4.6c-1.1-1.3-1.6-3.1-1.3-4.9c0.3-2.3,0.9-4.5,1.6-6.6c1.2-3.5,4-6.1,7.5-7.1c0.4-0.1,0.8-0.2,1.2-0.2
		c5.2,0.1,10.6,3,12.6,8.4C294.8,247.2,295,248.3,295.1,249.3z"/>
	<path class="st0" d="M92.7,126.8c-0.1-2.8,0.8-5.6,2.7-7.7c0.7-1,1.8-1.7,2.9-2.2c5-1.3,9.8-1.2,14.2,2c2.8,1.9,4.2,5.3,3.7,8.7
		c-0.2,2.8-1.3,5.5-3.1,7.7c-2.3,2.9-6.1,4.4-9.8,3.7c-0.5-0.1-1.1-0.1-1.7-0.2c-3.1-0.3-5.8-2.2-7-5.1
		C93.6,131.5,92.4,129.3,92.7,126.8z"/>
	<path class="st0" d="M164.4,128.2c-5.1,0-8.2-1.7-10.7-4.7c-1-1.1-1.6-2.6-1.5-4.2c0.3-4.8,1.3-9.3,5.2-12.6c2.5-2.2,6-2.9,9.1-1.7
		c2.9,0.8,5.4,2.6,7.2,4.9c1.9,2.3,2.6,5.3,1.9,8.2c-0.5,2.1-1.3,4-2.4,5.9c-0.7,1.2-1.8,2.1-3,2.6
		C168.2,127.3,166.3,127.8,164.4,128.2z"/>
	<path class="st0" d="M260.7,86c0.2,4-1.9,7.7-5.5,9.6c-0.2,0.1-0.5,0.3-0.7,0.4c-3,2.1-7,2.3-10.1,0.3c-2.1-1-4-2.5-5.4-4.3
		c-1.5-2.2-2.3-4.8-2.2-7.4c-0.1-1.6,0.5-3.2,1.6-4.4c2.2-2.5,5-4.4,8.1-5.6c5.5-1.8,9.5-0.2,12.4,4.7
		C260.1,81.4,260.8,83.7,260.7,86z"/>
	<path class="st0" d="M222.6,249.6c3.5-0.2,6.9,0.8,9.6,3c2,1.5,3.2,3.9,3.3,6.4c0.3,3.8-1,7.5-3.6,10.2c-1.8,2-4.4,3.2-7.1,3.3
		h-0.4c-3.4-0.2-6.9-0.3-9.1-3.4c-2.6-3.6-4.2-7.5-2.9-12c1-3.4,2.7-6.6,6.8-7.3C220.3,249.7,221.4,249.6,222.6,249.6z"/>
	<path class="st0" d="M338.7,103.8c3.3,0,6.3,1.8,7.9,4.7c2.1,2.9,2.9,6.5,2.2,10c-0.2,1.1-0.6,2.1-1.1,3.1
		c-2.1,3.5-5.4,5.2-9.2,6.1c-0.7,0.2-1.5,0.1-2.3-0.1c-3-0.7-5.7-2.2-7.9-4.3c-2.3-2.4-3.4-5.6-3.3-8.9c0-1.6,0.6-3.2,1.7-4.3
		c1.9-2.2,4.3-3.9,7-5.1C335.4,104.5,337,104.1,338.7,103.8z"/>
	<path class="st0" d="M34.3,114.6c-0.1-1.9,0.7-3.7,2.2-5c1.6-1.4,3.3-2.7,5.1-3.9c2.4-1.5,5.3-2,8.1-1.6c1.6,0.1,3.1,0.9,4.2,2
		c3.4,3.5,5.1,7.7,4,12.6c-0.3,1.4-0.9,2.7-1.8,3.9c-2.1,2.6-5,4.4-8.3,5c-0.8,0.2-1.7,0.2-2.5,0c-3.7-1.1-7.1-2.8-9.2-6.1
		C34.9,119.4,34.3,117,34.3,114.6z"/>
	<path class="st0" d="M45.2,174.1h-0.5c-8.6,0.9-11.7-8.8-9.7-14.2c0.3-0.8,0.7-1.5,1-2.3c1.8-4.8,5.7-6.2,10.3-6.4s7.9,2.1,10.1,6
		c1.5,2.7,2,5.8,1.5,8.8c-0.5,3.5-3,5.4-5.9,6.9C49.9,173.9,47.5,174.3,45.2,174.1z"/>
	<path class="st0" d="M162.5,174.1h-0.3c-8.7,0.9-11.7-8.8-9.7-14.2c0.3-0.8,0.7-1.5,1-2.3c1.8-4.8,5.6-6.2,10.3-6.4s7.9,2.1,10.1,6
		c1.5,2.7,2,5.8,1.5,8.8c-0.5,3.6-3.1,5.5-6.1,7C167.2,173.9,164.8,174.3,162.5,174.1z"/>
	<path class="st0" d="M280.2,174.1h-0.6c-8.6,0.9-11.7-8.8-9.7-14.2c0.3-0.8,0.7-1.5,1-2.3c1.8-4.8,5.7-6.2,10.3-6.4s7.9,2.1,10.1,6
		c1.5,2.7,2,5.8,1.5,8.8c-0.5,3.5-3,5.4-5.9,6.9C284.9,173.9,282.5,174.3,280.2,174.1z"/>
	<path class="st0" d="M152.1,252.2c0.5-4.7,1.5-9.3,5.5-12.4c2-1.7,4.8-2.4,7.3-1.8c3.4,0.7,6.5,2.6,8.6,5.3
		c2.1,2.7,2.7,6.2,1.6,9.4c-0.2,0.8-0.5,1.6-0.8,2.3c-1,3.1-3.7,5.3-6.9,5.8c-2.1,0.6-4.3,0.7-6.5,0.4c-3-0.6-5.7-2.3-7.5-4.8
		C152.5,255.3,152,253.8,152.1,252.2L152.1,252.2z"/>
	<path class="st0" d="M103.4,249.7c3.6-0.3,7.2,0.8,9.9,3.2c1.7,1.4,2.8,3.5,2.9,5.7c0.4,4-1,7.9-3.8,10.8c-1.8,1.9-4.2,3-6.8,3H105
		c-10.1,0.6-13.2-8.8-12.1-15.1c0.4-2.1,1.5-4,3-5.6c1.3-1.3,3-2.1,4.8-2.1C101.6,249.7,102.5,249.7,103.4,249.7z"/>
	<path class="st0" d="M260.7,219.6c0.1,3.9-2,7.5-5.4,9.4c-1,0.6-2,1.1-3.1,1.6c-1.9,0.8-4,0.8-5.8,0c-2.8-1.2-5.5-2.6-7.3-5.2
		c-1.5-2.2-2.3-4.9-2.2-7.6c0-1.8,0.7-3.6,2.1-4.8c1.7-1.5,3.5-2.9,5.4-4.1c2.4-1.4,5.2-1.9,8-1.4c1.6,0.2,3.1,0.9,4.2,2.1
		C259.3,212.2,260.8,215.9,260.7,219.6z"/>
	<path class="st0" d="M72.9,216.3c-2.4,0.1-4.7-0.5-6.7-1.9c-1.6-1.1-3.1-2.2-4.6-3.5c-1.8-1.6-2.6-4-2.3-6.4
		c0.6-6.9,5.3-10.1,10.9-11.7c0.9-0.2,1.8-0.3,2.7-0.1c3.3,0.6,6.2,2.4,8.3,5c2.8,3.8,2.6,7.8,0.9,12c-0.3,0.8-0.8,1.5-1.2,2.2
		C79.1,214.8,76.5,216.5,72.9,216.3z"/>
	<path class="st0" d="M189.1,219.8c-2.4,0.1-4.7-0.5-6.7-1.9c-1.6-1.1-3.1-2.2-4.6-3.5c-1.8-1.7-2.7-4.1-2.3-6.5
		c0.6-6.8,5.6-10.1,11-11.6c0.8-0.2,1.6-0.2,2.5,0c3.4,0.6,6.4,2.5,8.5,5.2c2.6,3.6,2.4,7.6,0.9,11.6c-0.4,1-0.9,1.9-1.5,2.7
		C195.3,218.5,192.3,220.1,189.1,219.8z"/>
	<path class="st0" d="M318.5,204.1c-0.2,3.8-1.8,7.4-4.5,10.1c-2.5,2.5-5.7,2.5-8.9,1.9c-3.8-0.8-6.6-3.2-9.2-6
		c-1-1.1-1.6-2.6-1.5-4.2c-0.2-4.4,2.1-8.6,5.9-10.9c0.4-0.3,0.9-0.4,1.3-0.7c2.3-1.3,4.8-2.3,7.5-1.3c3.4,1.2,6.5,2.8,8.1,6.3
		C317.7,200.8,318.2,202.4,318.5,204.1z"/>
</g>
</svg>
