<svg class="dots" xmlns="http://www.w3.org/2000/svg" width="397.512" height="380.843" viewBox="0 0 397.512 380.843"><g transform="translate(-38.016 199.462) rotate(-39)"><path d="M248.19,153.18a9.432,9.432,0,0,1,8.111,4.666c2.018,3.143,3.032,6.5,2.118,10.191a10.974,10.974,0,0,1-1.754,3.9,14.055,14.055,0,0,1-9.046,5.261,3.644,3.644,0,0,1-1.435-.033c-3.925-.9-7.387-2.573-9.794-5.977a11.308,11.308,0,0,1-1.936-8.235,6.56,6.56,0,0,1,1.5-3.309,17.878,17.878,0,0,1,7.859-5.509A43.3,43.3,0,0,1,248.19,153.18Z" transform="translate(-117.281 -79.377)" fill="#ffe100"/><path d="M258.777,488.1c-.079,4.4-1.861,7.544-5.418,9.629a15.4,15.4,0,0,1-3.7,1.758,9.067,9.067,0,0,1-4.244.277,15.2,15.2,0,0,1-8.243-4.777,12.11,12.11,0,0,1-2.8-8.81,5.948,5.948,0,0,1,2.109-4.339,45.623,45.623,0,0,1,5.245-3.975,11.874,11.874,0,0,1,8.76-1.423,7.986,7.986,0,0,1,3.8,1.878A13.4,13.4,0,0,1,258.777,488.1Z" transform="translate(-117.301 -268.776)" fill="#ffe100"/><path d="M761.3,561.926c-.062,2.9-1.845,5.9-5.212,8.157-4.041,2.709-7.929,2.875-12.16.36-4.388-2.61-6.618-6.266-6.589-11.337a6.03,6.03,0,0,1,1.654-4.335,19.887,19.887,0,0,1,8.1-5.53c5.406-1.729,9.447-.186,12.264,4.7A13.713,13.713,0,0,1,761.3,561.926Z" transform="translate(-412.24 -311.22)" fill="#ffe100"/><path d="M34.326,559.2a5.857,5.857,0,0,1,1.592-4.368,19.662,19.662,0,0,1,8.463-5.716c5.2-1.572,9.17.041,11.933,4.719a12.884,12.884,0,0,1,1.774,9.1,9.385,9.385,0,0,1-2.287,4.785,14.77,14.77,0,0,1-8.351,4.608,3.623,3.623,0,0,1-1.431-.021c-3.863-.893-7.259-2.56-9.617-5.911A11.992,11.992,0,0,1,34.326,559.2Z" transform="translate(0 -311.204)" fill="#ffe100"/><path d="M45.43,40.8l-.662-.033c-3.069-.05-5.89-.575-7.759-3.421-2.188-3.367-2.982-6.932-1.7-10.808a31.743,31.743,0,0,1,1.493-3.4A8.117,8.117,0,0,1,43.1,18.313a21.359,21.359,0,0,1,4.711-.438c5.427.331,8.748,4.351,9.993,8.806a16.156,16.156,0,0,1,.5,4.091c.062,4.053-2.163,7.143-6.25,8.855A16.346,16.346,0,0,1,45.43,40.8Z" transform="translate(-0.222 -0.034)" fill="#ffe100"/><path d="M329.432,40.8l-.649-.037c-3.065-.05-5.89-.563-7.768-3.4a11.938,11.938,0,0,1-1.712-10.8,30.911,30.911,0,0,1,1.489-3.4,8.1,8.1,0,0,1,6.279-4.839,21.611,21.611,0,0,1,4.707-.451c5.418.323,8.744,4.31,10.014,8.789a16.133,16.133,0,0,1,.513,4.087c.07,4.053-2.151,7.151-6.233,8.868a16.379,16.379,0,0,1-6.638,1.191Z" transform="translate(-166.75 -0.03)" fill="#ffe100"/><path d="M613.4,40.768l-.678-.033c-3.069-.05-5.89-.583-7.755-3.429a11.936,11.936,0,0,1-1.687-10.8,29.847,29.847,0,0,1,1.493-3.4,8.008,8.008,0,0,1,6.1-4.769,22.424,22.424,0,0,1,4.7-.509c5.505.252,8.913,4.26,10.2,8.831a16.128,16.128,0,0,1,.5,4.091c.062,4.049-2.171,7.139-6.258,8.847A16.259,16.259,0,0,1,613.4,40.768Z" transform="translate(-333.266 0)" fill="#ffe100"/><path d="M473.907,255.72c4.016-.091,7.569.691,10.539,3.309a7.929,7.929,0,0,1,2.862,5.745,13.8,13.8,0,0,1-3.338,10.34c-2.482,2.775-5.588,3.723-9.277,3.507-5.216-.294-8.33-2.995-10.067-7.755a12.161,12.161,0,0,1,2.114-12.578A6.262,6.262,0,0,1,471,255.981C472.021,255.861,473.055,255.8,473.907,255.72Z" transform="translate(-251.809 -139.501)" fill="#ffe100"/><path d="M118.819,129.435a13.635,13.635,0,0,1-4.289,9.964,7.782,7.782,0,0,1-5.447,2.159,11.581,11.581,0,0,1-6.92-1.712,38.773,38.773,0,0,1-5.079-3.876c-1.878-1.679-2.366-3.9-2.151-6.394.583-6.854,6.059-10.506,11.614-11.734a4.049,4.049,0,0,1,1.026-.087A12.22,12.22,0,0,1,118.819,129.435Z" transform="translate(-35.518 -58.602)" fill="#ffe100"/><path d="M403.006,129.483a14.509,14.509,0,0,1-4.55,9.972,7.82,7.82,0,0,1-5.472,2.093,11.825,11.825,0,0,1-7.085-1.865,38.888,38.888,0,0,1-4.728-3.64c-1.936-1.733-2.44-3.987-2.213-6.568.6-6.845,6.262-10.51,11.7-11.66a2.614,2.614,0,0,1,1.026-.054c4.612.91,8.458,3,10.427,7.528A20.99,20.99,0,0,1,403.006,129.483Z" transform="translate(-202.064 -58.591)" fill="#ffe100"/><path d="M686.995,129.527a14.552,14.552,0,0,1-4.55,9.964,7.771,7.771,0,0,1-5.274,2.068,11.251,11.251,0,0,1-6.742-1.58A41.448,41.448,0,0,1,665,135.885c-1.816-1.621-2.275-3.805-2.068-6.2.571-6.858,5.886-10.5,11.544-11.8a2.941,2.941,0,0,1,1.241-.087c4.587.922,8.434,3,10.378,7.511A21.024,21.024,0,0,1,686.995,129.527Z" transform="translate(-368.587 -58.611)" fill="#ffe100"/><path d="M619.081,227.249c4.657.517,8.645,2.639,11.031,7.172a10.073,10.073,0,0,1,1.022,3.723,13.8,13.8,0,0,1-3.053,9.414,4.879,4.879,0,0,1-1.708,1.46c-4.922,2.482-11.337,3.143-16.09-1.58a7.765,7.765,0,0,1-2.482-7.445c.563-2.858,1.079-5.716,2.866-8.1C612.7,229.213,615.148,227.2,619.081,227.249Z" transform="translate(-336.186 -122.809)" fill="#ffe100"/><path d="M202.226,379.3c-.24,4.442-2.8,7.619-6.808,9.774a14.718,14.718,0,0,1-3.28,1.212c-4,1.055-7.606-.364-10.245-3.975-2.275-3.119-2.982-6.742-3.243-10.477a5.575,5.575,0,0,1,1.278-3.843c2.978-3.805,6.812-5.65,11.709-4.918.476.07.943.2,1.419.256C199.757,368.127,201.85,373.951,202.226,379.3Z" transform="translate(-84.631 -204.71)" fill="#ffe100"/><path d="M486.225,379.266c-.223,4.467-2.792,7.644-6.792,9.807a14.89,14.89,0,0,1-3.276,1.212c-4,1.059-7.615-.347-10.254-3.954-2.283-3.115-2.99-6.738-3.255-10.477a5.571,5.571,0,0,1,1.266-3.843c2.974-3.809,6.808-5.658,11.705-4.939.476.07.943.2,1.419.256C483.706,368.132,485.819,373.823,486.225,379.266Z" transform="translate(-251.164 -204.711)" fill="#ffe100"/><path d="M770.227,379.345c-.248,4.368-2.8,7.495-6.692,9.654a16.257,16.257,0,0,1-3.474,1.278c-4.318,1.241-7.52-.683-10.072-3.913-2.436-3.086-3.1-6.829-3.334-10.646a5.58,5.58,0,0,1,1.328-3.822c3-3.793,6.862-5.58,11.742-4.839.414.058.827.17,1.241.215C767.778,368.1,769.875,373.915,770.227,379.345Z" transform="translate(-417.703 -204.695)" fill="#ffe100"/><path d="M770.318,56.7c-.194,4.5-2.779,7.693-6.783,9.856a15.078,15.078,0,0,1-3.888,1.361c-4.078.885-7.135-.935-9.538-3.979S746.9,57.1,746.8,53.27a6.405,6.405,0,0,1,1.183-3.64,11.8,11.8,0,0,1,12.065-5.042c.339.054.666.2,1,.236C767.729,45.519,769.9,51.268,770.318,56.7Z" transform="translate(-417.791 -15.592)" fill="#ffe100"/><path d="M486.217,56.869c-.273,4.5-2.9,7.685-7.031,9.84a15.037,15.037,0,0,1-1.547.579c-5.046,2.039-8.868.381-11.912-3.723-2.213-2.986-2.817-6.535-3.09-10.138a5.637,5.637,0,0,1,1.241-3.859,12.016,12.016,0,0,1,11.73-5.017c.414.05.8.236,1.2.273C483.756,45.5,485.874,51.575,486.217,56.869Z" transform="translate(-251.156 -15.61)" fill="#ffe100"/><path d="M190.947,44.39c1.162.31,3.445.827,5.638,1.568a5.41,5.41,0,0,1,2.432,1.828c6.37,8.719,2.337,16.482-4.893,19.287a16.457,16.457,0,0,1-2.957.893c-4.02.744-6.953-1.146-9.273-4.136s-3.04-6.734-3.309-10.485a5.965,5.965,0,0,1,1.522-4.182C182.621,46.094,185.781,44.4,190.947,44.39Z" transform="translate(-84.591 -15.584)" fill="#ffe100"/><path d="M631.22,561.2a15.7,15.7,0,0,1-3.255,8.88,5.374,5.374,0,0,1-1.907,1.539c-3.309,1.518-6.758,2.316-10.427,1.394a12.245,12.245,0,0,1-6.684-4.591,6.01,6.01,0,0,1-1.324-4.856,36.027,36.027,0,0,1,1.6-6.618,11.079,11.079,0,0,1,7.532-7.094,4.4,4.4,0,0,1,1.212-.219c5.166.07,10.609,2.978,12.628,8.409A18.037,18.037,0,0,1,631.22,561.2Z" transform="translate(-336.131 -311.856)" fill="#ffe100"/><path d="M175.352,266.206a10.636,10.636,0,0,1,2.709-7.652,6.156,6.156,0,0,1,2.924-2.155c4.963-1.278,9.823-1.208,14.212,1.973a8.773,8.773,0,0,1,3.652,8.686,13.677,13.677,0,0,1-3.1,7.726,10.241,10.241,0,0,1-9.753,3.723c-.546-.074-1.1-.112-1.654-.194a8.629,8.629,0,0,1-7.031-5.079C176.245,270.963,175.074,268.758,175.352,266.206Z" transform="translate(-82.677 -139.448)" fill="#ffe100"/><path d="M331.475,251c-5.087-.033-8.206-1.7-10.671-4.661a5.927,5.927,0,0,1-1.547-4.169c.269-4.794,1.29-9.265,5.154-12.615a8.832,8.832,0,0,1,9.066-1.721,13.7,13.7,0,0,1,7.185,4.943,9.339,9.339,0,0,1,1.865,8.169,23.965,23.965,0,0,1-2.378,5.886,6.585,6.585,0,0,1-3.048,2.622A41.99,41.99,0,0,1,331.475,251Z" transform="translate(-167.084 -122.833)" fill="#ffe100"/><path d="M547.8,165.627a10.338,10.338,0,0,1-5.456,9.588c-.236.141-.484.265-.716.414a9.206,9.206,0,0,1-10.134.323,15.786,15.786,0,0,1-5.418-4.347,12.311,12.311,0,0,1-2.217-7.4,5.94,5.94,0,0,1,1.609-4.359,20.213,20.213,0,0,1,8.069-5.584c5.476-1.8,9.538-.215,12.433,4.74A12.52,12.52,0,0,1,547.8,165.627Z" transform="translate(-287.058 -79.593)" fill="#ffe100"/><path d="M474.318,578.264a13.939,13.939,0,0,1,9.65,2.991,8.156,8.156,0,0,1,3.263,6.395,13.764,13.764,0,0,1-3.59,10.245,9.927,9.927,0,0,1-7.126,3.259H476.1c-3.4-.178-6.9-.327-9.141-3.392-2.606-3.557-4.248-7.548-2.941-11.995,1.009-3.445,2.734-6.564,6.8-7.271A31.741,31.741,0,0,1,474.318,578.264Z" transform="translate(-251.703 -328.633)" fill="#ffe100"/><path d="M750.931,225.73a9.228,9.228,0,0,1,7.945,4.661,12.79,12.79,0,0,1,2.167,10.005,10.543,10.543,0,0,1-1.137,3.069c-2.068,3.5-5.352,5.24-9.157,6.138a4.831,4.831,0,0,1-2.254-.05,16.5,16.5,0,0,1-7.859-4.314,11.983,11.983,0,0,1-3.288-8.851,6.147,6.147,0,0,1,1.675-4.343,19.685,19.685,0,0,1,6.957-5.075A39.024,39.024,0,0,1,750.931,225.73Z" transform="translate(-412.247 -121.919)" fill="#ffe100"/><path d="M34.337,236.786a6.031,6.031,0,0,1,2.155-4.963,43.188,43.188,0,0,1,5.079-3.871,12,12,0,0,1,8.148-1.592,6.812,6.812,0,0,1,4.219,2c3.4,3.528,5.149,7.652,4.024,12.595a10.585,10.585,0,0,1-1.8,3.884,13.848,13.848,0,0,1-8.31,5.017,5.075,5.075,0,0,1-2.453-.046c-3.723-1.059-7.056-2.751-9.24-6.146A12.408,12.408,0,0,1,34.337,236.786Z" transform="translate(-0.007 -122.217)" fill="#ffe100"/><path d="M45.42,363.2h-.455c-8.636.931-11.668-8.818-9.654-14.2.29-.773.687-1.506.972-2.279,1.783-4.815,5.658-6.2,10.34-6.382s7.859,2.068,10.072,5.977a13.615,13.615,0,0,1,1.5,8.806c-.488,3.507-3,5.447-5.948,6.882A13.937,13.937,0,0,1,45.42,363.2Z" transform="translate(-0.233 -189.117)" fill="#ffe100"/><path d="M329.309,363.2h-.331c-8.653.931-11.672-8.81-9.67-14.191.289-.769.687-1.506.972-2.279,1.779-4.814,5.646-6.233,10.311-6.39s7.859,2.068,10.08,5.964a13.591,13.591,0,0,1,1.506,8.806c-.5,3.6-3.094,5.547-6.121,6.978A13.939,13.939,0,0,1,329.309,363.2Z" transform="translate(-166.767 -189.12)" fill="#ffe100"/><path d="M613.552,363.2h-.583c-8.632.931-11.668-8.818-9.65-14.2.289-.769.682-1.506.968-2.279,1.783-4.815,5.663-6.2,10.341-6.378s7.859,2.068,10.071,5.977a13.625,13.625,0,0,1,1.5,8.806c-.488,3.512-3,5.447-5.948,6.887A13.484,13.484,0,0,1,613.552,363.2Z" transform="translate(-333.304 -189.118)" fill="#ffe100"/><path d="M319.164,564.132c.509-4.732,1.477-9.261,5.547-12.429a8.263,8.263,0,0,1,7.346-1.774,14.089,14.089,0,0,1,8.57,5.323,10.172,10.172,0,0,1,1.6,9.4c-.232.79-.546,1.559-.827,2.333a8.776,8.776,0,0,1-6.924,5.832,16.769,16.769,0,0,1-6.531.414,12.627,12.627,0,0,1-7.482-4.8,6.2,6.2,0,0,1-1.3-4.3Z" transform="translate(-167.02 -311.883)" fill="#ffe100"/><path d="M186.085,578.5a13.174,13.174,0,0,1,9.927,3.21,7.917,7.917,0,0,1,2.9,5.745,13.693,13.693,0,0,1-3.8,10.754,9.824,9.824,0,0,1-6.8,3.044h-.62c-10.059.587-13.236-8.81-12.094-15.1a11.308,11.308,0,0,1,3-5.576,6.952,6.952,0,0,1,4.806-2.105C184.289,578.446,185.187,578.5,186.085,578.5Z" transform="translate(-82.71 -328.758)" fill="#ffe100"/><path d="M547.814,488.438a10.149,10.149,0,0,1-5.418,9.356,27.683,27.683,0,0,1-3.123,1.588,7.271,7.271,0,0,1-5.836,0c-2.817-1.171-5.468-2.556-7.329-5.154a12.7,12.7,0,0,1-2.229-7.594A6.08,6.08,0,0,1,526,481.882a46.5,46.5,0,0,1,5.443-4.091,11.764,11.764,0,0,1,7.987-1.41,6.845,6.845,0,0,1,4.182,2.068A13.682,13.682,0,0,1,547.814,488.438Z" transform="translate(-287.072 -268.811)" fill="#ffe100"/><path d="M108.444,464.03a11.014,11.014,0,0,1-6.676-1.874,37.389,37.389,0,0,1-4.55-3.532,7.16,7.16,0,0,1-2.267-6.353c.633-6.866,5.348-10.08,10.87-11.738a5.4,5.4,0,0,1,2.655-.083,13.745,13.745,0,0,1,8.314,5.021c2.775,3.751,2.593,7.834.914,11.962a15.019,15.019,0,0,1-1.216,2.159C114.623,462.578,112.046,464.257,108.444,464.03Z" transform="translate(-35.532 -247.753)" fill="#ffe100"/><path d="M392.469,464.017a10.974,10.974,0,0,1-6.688-1.853,37.279,37.279,0,0,1-4.575-3.524,7.29,7.29,0,0,1-2.271-6.548c.645-6.792,5.638-10.092,11.015-11.61a5.144,5.144,0,0,1,2.457-.05,13.922,13.922,0,0,1,8.454,5.166c2.647,3.644,2.432,7.615.914,11.61a14.352,14.352,0,0,1-1.526,2.693A8.209,8.209,0,0,1,392.469,464.017Z" transform="translate(-203.379 -244.201)" fill="#ffe100"/><path d="M687.081,451.846a14.8,14.8,0,0,1-4.55,10.051c-2.519,2.523-5.741,2.527-8.913,1.853-3.78-.8-6.618-3.243-9.219-5.973a5.881,5.881,0,0,1-1.543-4.173,11.988,11.988,0,0,1,5.91-10.9c.414-.252.856-.447,1.278-.678,2.349-1.274,4.769-2.3,7.486-1.324,3.371,1.2,6.506,2.842,8.111,6.262A31.481,31.481,0,0,1,687.081,451.846Z" transform="translate(-368.565 -247.75)" fill="#ffe100"/></g></svg>