<svg xmlns="http://www.w3.org/2000/svg" width="175.677" height="175.701" viewBox="0 0 175.677 175.701">
  <path id="Pfad_123" data-name="Pfad 123" d="M709.436,2074.011c.209,2.262.673,4.5.988,6.753.484,3.464.924,6.934,1.423,10.4a15.419,15.419,0,0,0,.619,2.575,76.833,76.833,0,0,0,5.682,13.087,78.261,78.261,0,0,0,11.1,15.333c5.351,5.831,10.928,11.355,17.559,15.762a57.788,57.788,0,0,0,11.245,6.257c3.742,1.429,7.5,2.813,11.189,4.375a51.322,51.322,0,0,0,15.231,3.484c4.737.463,9.491.837,14.246.991,3.7.119,7.42-.08,11.123-.291a46.8,46.8,0,0,0,6.759-.869c3.754-.774,7.484-1.685,11.2-2.646,2.893-.75,5.788-1.542,8.6-2.535a46.633,46.633,0,0,0,12.79-6.814,71.266,71.266,0,0,0,7.787-7.032,63.094,63.094,0,0,0,10.471-13.9c1.8-3.3,3.539-6.623,5.434-9.861a86.455,86.455,0,0,0,9.192-22.666,92.807,92.807,0,0,0,2.652-24.952c-.081-3.5-.248-6.995-.389-10.492-.067-1.644-.036-3.295-.05-4.939A62.211,62.211,0,0,0,883,2033.717a53.973,53.973,0,0,0-8.387-19.247,150.439,150.439,0,0,0-13.8-17.611,53.109,53.109,0,0,0-19.409-13.632,78.849,78.849,0,0,0-25.75-5.4,33.333,33.333,0,0,1-4.41-.261,26.219,26.219,0,0,0-6.427,0c-1,.06-1.978.373-2.975.488-2.3.265-4.621.412-6.917.727a99.4,99.4,0,0,1-11.077,1.021,35.048,35.048,0,0,0-7.866,1.159,150.194,150.194,0,0,0-17.586,5.6,16.966,16.966,0,0,0-4.6,2.6q-8.233,6.722-16.473,13.436a48.066,48.066,0,0,0-7.085,6.846c-1.4,1.737-2.967,3.35-4.307,5.133a84.2,84.2,0,0,0-8.019,13.3,79.231,79.231,0,0,0-4.343,9.822,86.848,86.848,0,0,0-3.526,15.379A88.8,88.8,0,0,0,709.436,2074.011Z" transform="translate(-709.076 -1977.359)" fill="#b9e6e6"/>
</svg>
