<svg xmlns="http://www.w3.org/2000/svg" width="120.096" height="150.665" viewBox="0 0 120.096 150.665">
  <g id="Gruppe_138" data-name="Gruppe 138" transform="translate(-209 -96.578)">
    <path id="Pfad_136" data-name="Pfad 136" d="M343.583,138.16a3.687,3.687,0,0,1,.376.573,4.624,4.624,0,0,0,5.379,2.8,4.682,4.682,0,0,0,3.629-4.589q.017-11.042,0-22.082a23.609,23.609,0,0,0-.094-3.249,4.466,4.466,0,0,0-3.9-4.028,4.682,4.682,0,0,0-5.052,2.97c-.091.209-.222.4-.334.6Z" transform="translate(-23.879 -1.945)" fill="#ffe100"/>
    <path id="Pfad_137" data-name="Pfad 137" d="M218.39,111.154a14.147,14.147,0,0,0-1.63-2.411,4.288,4.288,0,0,0-4.871-.823,4.474,4.474,0,0,0-2.875,4.5q-.028,10.406,0,20.814a36.6,36.6,0,0,0,.136,4.6,4.391,4.391,0,0,0,3.766,3.727c2.489.235,4.249-.748,5.1-2.835a3.459,3.459,0,0,1,.373-.569Z" transform="translate(0 -1.941)" fill="#ffe100"/>
    <path id="Pfad_138" data-name="Pfad 138" d="M328.351,123.2c0,1.954.02,3.788-.035,5.62,0,.151-.512.409-.789.411-3.02.031-6.04.023-9.06.024H302.612c-1.172,0-1.18,0-1.181,1.215-.007,5.617-.02,7.611-.006,13.229a6.936,6.936,0,0,1-1.4,4.286q-7.693,10.5-15.282,21.081a3.322,3.322,0,0,0-.559,1.823c-.026,26.819-.019,48.2-.021,75.023a5.063,5.063,0,0,1-4.931,4.91,16.069,16.069,0,0,1-2.976-.09,5.2,5.2,0,0,1-4.209-5.431q.006-19.662.006-39.323c0-2.059,0-2.059-2.069-2.059-2.13,0-2.127,0-2.127,2.151q0,19.8-.009,39.6a5.031,5.031,0,0,1-5.227,5.153,11.345,11.345,0,0,1-2.87-.156c-2.748-.749-4-2.663-4-5.893q-.016-10.42-.008-20.84c0-19.571.007-33.707-.021-53.278a3.164,3.164,0,0,0-.562-1.732c-3.7-5.136-7.441-10.239-11.168-15.354-1.455-2-2.912-3.994-4.351-6a6.778,6.778,0,0,1-1.035-4.05c-.033-5.5-.015-7.369-.017-12.867,0-1.39,0-1.391-1.443-1.391-8.094,0-16.187-.019-24.281.017-.92,0-1.22-.234-1.167-1.156a32.238,32.238,0,0,0-.009-3.8c-.058-.951.312-1.136,1.2-1.132,8.153.031,16.308.016,24.462.014,1.3,0,1.328-.016,1.4-1.277a5.8,5.8,0,0,1,5.318-4.99,5.685,5.685,0,0,1,6.007,5.618c0,.805.54.645.994.645q10.556.009,21.111.007c5.5,0,10.993-.024,16.488.02.883.007,1.253-.243,1.314-1.116a5.208,5.208,0,0,1,3.411-4.713,5.613,5.613,0,0,1,6.173,1,5.129,5.129,0,0,1,1.815,3.721c.025.972.416,1.108,1.261,1.106,8.184-.026,16.368-.014,24.552-.012Zm-58.314,6.055c-6.277,0-12.555.021-18.833-.023-.941-.006-1.152.279-1.145,1.175.042,4.859,0,6.1.044,10.954a3.2,3.2,0,0,0,.556,1.741c3.86,5.35,7.771,10.663,11.644,16a1.547,1.547,0,0,0,1.425.712q6.247-.038,12.495,0a1.777,1.777,0,0,0,1.634-.842c3.9-5.4,7.834-10.768,11.738-16.162a2.1,2.1,0,0,0,.378-1.147c.024-4.98,0-6.336.03-11.316.006-.878-.268-1.12-1.134-1.115C282.593,129.273,276.315,129.257,270.037,129.257Z" transform="translate(-0.476 -3.604)" fill="#ffe100"/>
    <path id="Pfad_139" data-name="Pfad 139" d="M225.374,122.714q0,10.638,0,21.277a4.413,4.413,0,0,1-4.575,4.729,4.512,4.512,0,0,1-4.665-4.68q-.028-9.868-.012-19.738c0-7.636-.009-15.272.013-22.907a4.609,4.609,0,0,1,5.911-4.635,4.407,4.407,0,0,1,3.325,4.315Q225.382,111.895,225.374,122.714Z" transform="translate(-1.263 0)" fill="#ffe100"/>
    <path id="Pfad_140" data-name="Pfad 140" d="M336.624,122.654c0-7.153.047-14.307-.027-21.459a4.637,4.637,0,0,1,9.274-.018q-.009,13.174,0,26.35,0,8.194-.008,16.389a4.554,4.554,0,0,1-4.994,4.806,4.427,4.427,0,0,1-4.248-4.426q-.007-10.821,0-21.641Z" transform="translate(-22.639 -0.001)" fill="#ffe100"/>
    <path id="Pfad_141" data-name="Pfad 141" d="M291.6,147.125a11.8,11.8,0,0,1-11.973,11.932A12,12,0,1,1,291.6,147.125Z" transform="translate(-10.419 -6.828)" fill="#ffe100"/>
  </g>
</svg>
