<svg xmlns="http://www.w3.org/2000/svg" xmlns:xlink="http://www.w3.org/1999/xlink" width="229" height="196.652" viewBox="0 0 229 196.652">
  <defs>
    <clipPath id="clip-path">
      <rect id="P3023603" width="229" height="196.652" transform="translate(-19333 -20679)" fill="#e22e77" stroke="#fff" stroke-width="5"/>
    </clipPath>
  </defs>
  <g id="Gruppe_maskieren_4" data-name="Gruppe maskieren 4" transform="translate(19333 20679)" clip-path="url(#clip-path)">
    <g id="Gruppe_151" data-name="Gruppe 151" transform="translate(-19412.82 -20652.465)">
      <g id="Gruppe_139" data-name="Gruppe 139" transform="translate(112.743 44.936)">
        <path id="Pfad_142" data-name="Pfad 142" d="M13.872,2.55A20.312,20.312,0,0,1,20.292.089c4.235-.771,8.465,3.605,7.227,8.353a19.325,19.325,0,0,1-4.054,7.7,17.966,17.966,0,0,1-4.735,4.1,22.6,22.6,0,0,1-4.9,1.841A20.017,20.017,0,0,0,7.752,25a.306.306,0,0,1-.473-.036Q3.746,21.663.2,18.382a.429.429,0,0,1-.125-.6A36.332,36.332,0,0,1,5.7,9.584,42.389,42.389,0,0,1,11,4.513C12.081,3.693,13.238,2.981,13.872,2.55Z" transform="translate(9.064 0)" fill="#ffe009"/>
        <path id="Pfad_143" data-name="Pfad 143" d="M6.783,0l7.526,6.7c-1.3,2.428-2.54,4.836-4.812,6.482A7.613,7.613,0,0,1,4.591,14.88,4.678,4.678,0,0,1,0,10.078,8.1,8.1,0,0,1,1.095,6.115a17.986,17.986,0,0,1,4.3-4.973C5.832.769,6.283.411,6.783,0Z" transform="translate(0 21.154)" fill="#ffe009"/>
      </g>
      <g id="Gruppe_140" data-name="Gruppe 140" transform="translate(154.517 47.027)">
        <path id="Pfad_144" data-name="Pfad 144" d="M21.82,15.293a32.73,32.73,0,0,1-7.684,4.649A32.669,32.669,0,0,1,5.13,22.681c-.511.084-.519.072-.779-.444Q2.222,18.023.1,13.807c-.075-.151-.178-.283.006-.421A19.951,19.951,0,0,0,5.021,7.628,13.291,13.291,0,0,1,7.663,4.307,18.211,18.211,0,0,1,10.13,2.583,17.9,17.9,0,0,1,20.065.009a7.028,7.028,0,0,1,4.091,1.345,6.709,6.709,0,0,1,2.3,8.147,14.11,14.11,0,0,1-2.8,4.017C23.061,14.13,22.432,14.7,21.82,15.293Z" transform="translate(13.983 0)" fill="#ffe009"/>
        <path id="Pfad_145" data-name="Pfad 145" d="M10.785,0,15.04,9.155c-.518.35-1,.685-1.489,1a18.418,18.418,0,0,1-5.7,2.614A8.135,8.135,0,0,1,3.306,12.7,4.677,4.677,0,0,1,.177,6.9,7.32,7.32,0,0,1,2.763,3.1,12.122,12.122,0,0,1,7.772.682C8.757.446,9.748.234,10.785,0Z" transform="translate(0 14.825)" fill="#ffe009"/>
      </g>
      <g id="Gruppe_141" data-name="Gruppe 141" transform="translate(168.661 9.714)">
        <path id="Pfad_146" data-name="Pfad 146" d="M18.695.226a20.338,20.338,0,0,1,6.873.128c4.216.876,6.493,6.521,3.563,10.456a19.318,19.318,0,0,1-6.649,5.617,17.916,17.916,0,0,1-5.928,2.021,22.52,22.52,0,0,1-5.233-.133,20.018,20.018,0,0,0-6.728.42c-.224.054-.323.008-.425-.212Q2.132,14.139.076,9.766a.429.429,0,0,1,.111-.605A36.319,36.319,0,0,1,8.478,3.676,42.46,42.46,0,0,1,15.3.967C16.6.612,17.945.387,18.695.226Z" transform="translate(13.712 0)" fill="#ffe009"/>
        <path id="Pfad_147" data-name="Pfad 147" d="M10.45,0l4.46,9.04c-2.121,1.76-4.17,3.529-6.894,4.2a7.618,7.618,0,0,1-5.184-.274A4.677,4.677,0,0,1,.38,6.794a8.1,8.1,0,0,1,2.5-3.263A17.99,17.99,0,0,1,8.735.537C9.281.355,9.833.193,10.45,0Z" transform="translate(0 11.404)" fill="#ffe009"/>
      </g>
      <g id="Gruppe_142" data-name="Gruppe 142" transform="translate(211.486 26.059)">
        <path id="Pfad_148" data-name="Pfad 148" d="M19.28,16.493a32.713,32.713,0,0,1-8.907,1.15,32.676,32.676,0,0,1-9.345-1.131c-.5-.129-.5-.144-.534-.72Q.249,11.076.009,6.362C0,6.193-.041,6.032.184,5.978A19.948,19.948,0,0,0,7.007,2.7,13.282,13.282,0,0,1,10.766.726a18.1,18.1,0,0,1,2.953-.58A17.894,17.894,0,0,1,23.846,1.8a7.024,7.024,0,0,1,3.2,2.884,6.705,6.705,0,0,1-1.185,8.382,14.1,14.1,0,0,1-4.187,2.544C20.887,15.931,20.079,16.2,19.28,16.493Z" transform="translate(17.018 0)" fill="#ffe009"/>
        <path id="Pfad_149" data-name="Pfad 149" d="M13.6.827l.2,10.093c-.616.111-1.189.224-1.767.314a18.411,18.411,0,0,1-6.269.092,8.127,8.127,0,0,1-4.131-1.9,4.676,4.676,0,0,1-.518-6.574A7.317,7.317,0,0,1,5.01.421,12.115,12.115,0,0,1,10.567.234C11.565.416,12.557.622,13.6.827Z" transform="translate(0 5.136)" fill="#ffe009"/>
      </g>
      <g id="Gruppe_143" data-name="Gruppe 143" transform="translate(240.907 0)">
        <path id="Pfad_150" data-name="Pfad 150" d="M20.851.82a20.313,20.313,0,0,1,6.3,2.741c3.562,2.418,3.512,8.5-.7,11.023a19.315,19.315,0,0,1-8.29,2.655,17.959,17.959,0,0,1-6.25-.394,22.629,22.629,0,0,1-4.786-2.12,20.009,20.009,0,0,0-6.38-2.18c-.226-.035-.3-.115-.311-.358Q.232,7.359,0,2.532c-.014-.29.06-.427.332-.518A36.294,36.294,0,0,1,10.091.11a42.391,42.391,0,0,1,7.335.1C18.771.378,20.1.682,20.851.82Z" transform="translate(17.041 0)" fill="#ffe009"/>
        <path id="Pfad_151" data-name="Pfad 151" d="M13.33.235,14,10.292c-2.632.818-5.2,1.67-7.976,1.254A7.618,7.618,0,0,1,1.339,9.314,4.679,4.679,0,0,1,1.429,2.67,8.124,8.124,0,0,1,4.987.611,17.989,17.989,0,0,1,11.54.076C12.114.116,12.686.177,13.33.235Z" transform="translate(0 2.537)" fill="#ffe009"/>
      </g>
      <g id="Gruppe_144" data-name="Gruppe 144" transform="translate(277.723 26.673)">
        <path id="Pfad_152" data-name="Pfad 152" d="M17.221,17.869A32.752,32.752,0,0,1,8.55,15.532,32.6,32.6,0,0,1,.344,10.921c-.414-.311-.411-.325-.218-.869Q1.7,5.6,3.275,1.149c.057-.159.081-.324.308-.287A19.937,19.937,0,0,0,11.142.433,13.277,13.277,0,0,1,15.369.045,18.172,18.172,0,0,1,18.32.636a17.9,17.9,0,0,1,8.729,5.4,7.027,7.027,0,0,1,1.857,3.887,6.705,6.705,0,0,1-4.3,7.3,14.055,14.055,0,0,1-4.839.753C18.921,17.962,18.071,17.9,17.221,17.869Z" transform="translate(14.588 4.25)" fill="#ffe009"/>
        <path id="Pfad_153" data-name="Pfad 153" d="M14.848,3.723l-3.671,9.4c-.611-.133-1.184-.247-1.753-.384a18.454,18.454,0,0,1-5.83-2.308A8.139,8.139,0,0,1,.5,7.1,4.677,4.677,0,0,1,2.529.83,7.327,7.327,0,0,1,7.063.07a12.135,12.135,0,0,1,5.208,1.947C13.124,2.566,13.962,3.136,14.848,3.723Z" transform="translate(0 0)" fill="#ffe009"/>
      </g>
      <g id="Gruppe_145" data-name="Gruppe 145" transform="translate(317.805 14.381)">
        <path id="Pfad_154" data-name="Pfad 154" d="M23.013,5.472A20.3,20.3,0,0,1,28.1,10.1c2.594,3.436.587,9.182-4.209,10.212a19.314,19.314,0,0,1-8.7-.154A17.95,17.95,0,0,1,9.4,17.77a22.515,22.515,0,0,1-3.849-3.548A20,20,0,0,0,.21,10.106C.006,10-.038,9.9.03,9.666Q1.388,5.028,2.722.384C2.8.1,2.917,0,3.2,0a36.322,36.322,0,0,1,9.852,1.337A42.417,42.417,0,0,1,19.968,3.79C21.186,4.384,22.343,5.1,23.013,5.472Z" transform="translate(15.599 2.92)" fill="#ffe009"/>
        <path id="Pfad_155" data-name="Pfad 155" d="M14.729,2.336l-2.6,9.738C9.373,12,6.667,11.982,4.174,10.694A7.621,7.621,0,0,1,.454,7.072,4.678,4.678,0,0,1,2.678.812,8.118,8.118,0,0,1,6.709.006a18,18,0,0,1,6.376,1.6C13.616,1.832,14.139,2.073,14.729,2.336Z" transform="translate(0 0)" fill="#ffe009"/>
      </g>
      <g id="Gruppe_146" data-name="Gruppe 146" transform="translate(345.229 48.402)">
        <path id="Pfad_156" data-name="Pfad 156" d="M13.951,20.528a32.7,32.7,0,0,1-7.458-5A32.642,32.642,0,0,1,.208,8.519c-.292-.428-.285-.44.073-.893Q3.2,3.916,6.127.21c.1-.133.18-.281.385-.173a19.948,19.948,0,0,0,7.294,2.027,13.279,13.279,0,0,1,4.127.992,18.3,18.3,0,0,1,2.6,1.509,17.893,17.893,0,0,1,6.528,7.919,7.018,7.018,0,0,1,.508,4.277,6.708,6.708,0,0,1-6.415,5.525,14.1,14.1,0,0,1-4.825-.845C15.53,21.163,14.745,20.835,13.951,20.528Z" transform="translate(10.896 9.154)" fill="#ffe009"/>
        <path id="Pfad_157" data-name="Pfad 157" d="M14.71,6.807l-6.5,7.723c-.536-.323-1.042-.616-1.536-.928A18.45,18.45,0,0,1,1.894,9.54,8.134,8.134,0,0,1,.036,5.39,4.675,4.675,0,0,1,3.977.1,7.314,7.314,0,0,1,8.514.843a12.1,12.1,0,0,1,4.3,3.519C13.449,5.156,14.06,5.965,14.71,6.807Z" transform="translate(0 0)" fill="#ffe009"/>
      </g>
      <g id="Gruppe_147" data-name="Gruppe 147" transform="translate(57.717 90.831)">
        <path id="Pfad_158" data-name="Pfad 158" d="M15.605,1.7A20.345,20.345,0,0,1,22.269.01c4.3-.266,7.98,4.58,6.191,9.148a19.315,19.315,0,0,1-4.934,7.171,17.932,17.932,0,0,1-5.186,3.511,22.564,22.564,0,0,1-5.084,1.25,20.043,20.043,0,0,0-6.38,2.179.306.306,0,0,1-.465-.093Q3.294,19.484.159,15.806a.428.428,0,0,1-.053-.613A36.354,36.354,0,0,1,6.658,7.718a42.47,42.47,0,0,1,5.864-4.409C13.69,2.621,14.924,2.05,15.605,1.7Z" transform="translate(10.592 0)" fill="#ffe009"/>
        <path id="Pfad_159" data-name="Pfad 159" d="M7.961,0l6.682,7.545c-1.582,2.258-3.092,4.5-5.542,5.87a7.612,7.612,0,0,1-5.073,1.1A4.677,4.677,0,0,1,.036,9.207,8.1,8.1,0,0,1,1.591,5.4,17.993,17.993,0,0,1,6.448.97C6.927.651,7.416.348,7.961,0Z" transform="translate(0 18.266)" fill="#ffe009"/>
      </g>
      <g id="Gruppe_148" data-name="Gruppe 148" transform="translate(103.91 91.858)">
        <path id="Pfad_160" data-name="Pfad 160" d="M21.854,15.239a32.677,32.677,0,0,1-7.572,4.828,32.59,32.59,0,0,1-8.938,2.951c-.508.1-.517.085-.79-.425Q2.328,18.429.1,14.265c-.08-.149-.185-.279,0-.423a19.97,19.97,0,0,0,4.78-5.87A13.251,13.251,0,0,1,7.444,4.589,18.164,18.164,0,0,1,9.868,2.808,17.906,17.906,0,0,1,19.739,0a7.019,7.019,0,0,1,4.123,1.249,6.708,6.708,0,0,1,2.492,8.09,14.112,14.112,0,0,1-2.707,4.083C23.069,14.046,22.453,14.635,21.854,15.239Z" transform="translate(13.756 0)" fill="#ffe009"/>
        <path id="Pfad_161" data-name="Pfad 161" d="M10.589,0l4.47,9.053c-.511.361-.982.709-1.467,1.036a18.407,18.407,0,0,1-5.634,2.748,8.139,8.139,0,0,1-4.547.04A4.676,4.676,0,0,1,.147,7.147a7.315,7.315,0,0,1,2.5-3.861A12.112,12.112,0,0,1,7.592.753C8.571.494,9.558.259,10.589,0Z" transform="translate(0 15.36)" fill="#ffe009"/>
      </g>
      <g id="Gruppe_149" data-name="Gruppe 149" transform="translate(0 123.665)">
        <path id="Pfad_162" data-name="Pfad 162" d="M18.435.324A20.355,20.355,0,0,1,25.31.265c4.237.76,6.667,6.341,3.845,10.354a19.332,19.332,0,0,1-6.494,5.8,17.951,17.951,0,0,1-5.87,2.181,22.564,22.564,0,0,1-5.234.009,20.009,20.009,0,0,0-6.715.6c-.221.06-.321.018-.43-.2Q2.259,14.683.085,10.367A.427.427,0,0,1,.178,9.76,36.311,36.311,0,0,1,8.317,4.051a42.455,42.455,0,0,1,6.741-2.894C16.356.767,17.69.5,18.435.324Z" transform="translate(13.42 0)" fill="#ffe009"/>
        <path id="Pfad_163" data-name="Pfad 163" d="M10.211,0l4.7,8.914c-2.073,1.819-4.073,3.642-6.776,4.389a7.613,7.613,0,0,1-5.19-.133,4.677,4.677,0,0,1-2.62-6.1,8.116,8.116,0,0,1,2.413-3.33A18,18,0,0,1,8.511.583C9.052.387,9.6.21,10.211,0Z" transform="translate(0 12.096)" fill="#ffe009"/>
      </g>
      <g id="Gruppe_150" data-name="Gruppe 150" transform="translate(42.877 134.517)">
        <path id="Pfad_164" data-name="Pfad 164" d="M20.946,15.875a32.752,32.752,0,0,1-8.5,2.9,32.648,32.648,0,0,1-9.383.747c-.517-.028-.521-.041-.666-.6Q1.22,14.345.046,9.772c-.042-.164-.113-.314.1-.411a19.957,19.957,0,0,0,6.036-4.57A13.259,13.259,0,0,1,9.471,2.112,18.185,18.185,0,0,1,12.249.957,17.9,17.9,0,0,1,22.5.569a7.025,7.025,0,0,1,3.709,2.19,6.708,6.708,0,0,1,.5,8.451,14.09,14.09,0,0,1-3.6,3.324C22.409,15,21.671,15.429,20.946,15.875Z" transform="translate(15.804 0)" fill="#ffe009"/>
        <path id="Pfad_165" data-name="Pfad 165" d="M12.413,0l2.2,9.854c-.581.231-1.122.456-1.67.659a18.43,18.43,0,0,1-6.125,1.334,8.13,8.13,0,0,1-4.427-1.039A4.674,4.674,0,0,1,.574,4.468,7.317,7.317,0,0,1,3.914,1.309,12.108,12.108,0,0,1,9.322.021C10.336,0,11.35.006,12.413,0Z" transform="translate(0 10.06)" fill="#ffe009"/>
      </g>
    </g>
  </g>
</svg>
